<svg version="1" xmlns="http://www.w3.org/2000/svg" width="1365.333" height="1365.333" viewBox="0 0 1024.000000 1024.000000"><path d="M0 512v512h512V0H0v512zM754 656.5c-.8.2-4.9.9-9 1.5-31 5.1-62.1 24.9-81.3 51.9-9.8 13.7-16 27.3-20.3 44.3-3.5 13.8-4.2 37.2-1.4 52.3 9.6 53.3 52.2 95.3 105.5 103.9 12.3 2 35.6 1.6 46.3-.8 24.5-5.4 46.5-17.3 63.9-34.4 7.5-7.5 16.4-18.7 20.2-25.5 1.2-2 2.9-5.2 3.9-7 3.7-6.6 8.3-18.9 10.9-29.4 2.4-9.6 2.7-12.7 2.7-28.3.1-13.2-.4-19.6-1.7-26-10.6-49.6-46.9-87.3-95.9-99.6-8.4-2.1-13.2-2.6-26.3-2.9-8.8-.2-16.7-.2-17.5 0z"/></svg>